<?xml version="1.0" encoding="UTF-8" standalone="no"?>
<svg
   xmlns:dc="http://purl.org/dc/elements/1.1/"
   xmlns:cc="http://creativecommons.org/ns#"
   xmlns:rdf="http://www.w3.org/1999/02/22-rdf-syntax-ns#"
   xmlns:svg="http://www.w3.org/2000/svg"
   xmlns="http://www.w3.org/2000/svg"
   xmlns:sodipodi="http://sodipodi.sourceforge.net/DTD/sodipodi-0.dtd"
   xmlns:inkscape="http://www.inkscape.org/namespaces/inkscape"
   aria-hidden="true"
   focusable="false"
   data-prefix="fas"
   data-icon="virus"
   class="svg-inline--fa fa-virus fa-w-16"
   role="img"
   viewBox="0 0 512 512"
   version="1.1"
   id="svg30"
   sodipodi:docname="virus-solid (1).svg"
   inkscape:version="0.92.4 (5da689c313, 2019-01-14)">
  <metadata
     id="metadata36">
    <rdf:RDF>
      <cc:Work
         rdf:about="">
        <dc:format>image/svg+xml</dc:format>
        <dc:type
           rdf:resource="http://purl.org/dc/dcmitype/StillImage" />
      </cc:Work>
    </rdf:RDF>
  </metadata>
  <defs
     id="defs34" />
  <sodipodi:namedview
     pagecolor="#ffffff"
     bordercolor="#666666"
     borderopacity="1"
     objecttolerance="10"
     gridtolerance="10"
     guidetolerance="10"
     inkscape:pageopacity="0"
     inkscape:pageshadow="2"
     inkscape:window-width="3440"
     inkscape:window-height="1377"
     id="namedview32"
     showgrid="false"
     inkscape:zoom="2.359375"
     inkscape:cx="58.490066"
     inkscape:cy="239.04636"
     inkscape:window-x="-8"
     inkscape:window-y="-8"
     inkscape:window-maximized="1"
     inkscape:current-layer="svg30" />
  <path
     fill="currentColor"
     d="M483.55,227.55H462c-50.68,0-76.07-61.27-40.23-97.11L437,115.19A28.44,28.44,0,0,0,396.8,75L381.56,90.22c-35.84,35.83-97.11,10.45-97.11-40.23V28.44a28.45,28.45,0,0,0-56.9,0V50c0,50.68-61.27,76.06-97.11,40.23L115.2,75A28.44,28.44,0,0,0,75,115.19l15.25,15.25c35.84,35.84,10.45,97.11-40.23,97.11H28.45a28.45,28.45,0,1,0,0,56.89H50c50.68,0,76.07,61.28,40.23,97.12L75,396.8A28.45,28.45,0,0,0,115.2,437l15.24-15.25c35.84-35.84,97.11-10.45,97.11,40.23v21.54a28.45,28.45,0,0,0,56.9,0V462c0-50.68,61.27-76.07,97.11-40.23L396.8,437A28.45,28.45,0,0,0,437,396.8l-15.25-15.24c-35.84-35.84-10.45-97.12,40.23-97.12h21.54a28.45,28.45,0,1,0,0-56.89ZM224,272a48,48,0,1,1,48-48A48,48,0,0,1,224,272Zm80,56a24,24,0,1,1,24-24A24,24,0,0,1,304,328Z"
     id="path28"
     style="fill:#29bcd6;fill-opacity:1" />
</svg>
